<svg width="900" height="600" viewBox="0 0 900 600" xmlns="http://www.w3.org/2000/svg" fill="none">
  <rect width="900" height="600" rx="32" fill="url(#bg1)"/>
  <g filter="url(#shadow)">
    <ellipse cx="280" cy="340" rx="120" ry="160" fill="#e93b5a"/>
    <ellipse cx="380" cy="320" rx="110" ry="150" fill="#d42044"/>
    <rect x="240" y="150" width="80" height="80" rx="18" fill="#3baa3f" transform="rotate(-10 240 150)"/>
    <rect x="340" y="140" width="70" height="70" rx="16" fill="#3baa3f" transform="rotate(8 340 140)"/>
    <circle cx="260" cy="280" r="10" fill="#ffced6"/>
    <circle cx="320" cy="360" r="12" fill="#ffced6"/>
    <circle cx="380" cy="280" r="9" fill="#ffced6"/>
    <circle cx="430" cy="360" r="11" fill="#ffced6"/>
    <circle cx="330" cy="430" r="10" fill="#ffced6"/>
    <circle cx="400" cy="420" r="9" fill="#ffced6"/>
  </g>
  <text x="520" y="260" fill="#fff" font-size="46" font-family="'Inter', sans-serif" font-weight="700">Fresas orgánicas</text>
  <text x="520" y="320" fill="#f7e9ff" font-size="26" font-family="'Inter', sans-serif">Cosecha fresca · 500 g</text>
  <text x="520" y="370" fill="#f7e9ff" font-size="22" font-family="'Inter', sans-serif">Ideal para smoothies, bowls y postres ligeros.</text>
  <defs>
    <linearGradient id="bg1" x1="0" y1="0" x2="900" y2="600" gradientUnits="userSpaceOnUse">
      <stop stop-color="#12001c"/>
      <stop offset="1" stop-color="#2c0a33"/>
    </linearGradient>
    <filter id="shadow" x="120" y="80" width="420" height="500" color-interpolation-filters="sRGB">
      <feDropShadow dx="0" dy="18" stdDeviation="22" flood-color="#000" flood-opacity="0.35"/>
    </filter>
  </defs>
</svg>
